<svg width="17" height="13" viewBox="0 0 17 13" fill="none" xmlns="http://www.w3.org/2000/svg">
<path d="M1.63789 6.7372L1.63788 6.73719C1.50185 6.60116 1.31736 6.52474 1.12498 6.52474C0.932607 6.52474 0.748112 6.60116 0.612083 6.73719C0.476054 6.87322 0.399634 7.05771 0.399634 7.25009C0.399634 7.44246 0.476054 7.62696 0.612083 7.76299L4.98704 12.1379C4.98706 12.138 4.98707 12.138 4.98708 12.138C5.05441 12.2054 5.13435 12.2588 5.22235 12.2953L5.26064 12.2029L5.22235 12.2953C5.31036 12.3318 5.40471 12.3506 5.49998 12.3506C5.59526 12.3506 5.6896 12.3318 5.77761 12.2953C5.86561 12.2588 5.94555 12.2054 6.01288 12.138C6.01289 12.138 6.01291 12.138 6.01292 12.1379L16.0129 2.13799C16.1489 2.00196 16.2253 1.81746 16.2253 1.62509C16.2253 1.43271 16.1489 1.24822 16.0129 1.11219C15.8769 0.97616 15.6924 0.899741 15.5 0.899741C15.3076 0.899741 15.1231 0.97616 14.9871 1.11219L14.9871 1.11219L5.49999 10.6001L1.63789 6.7372Z" fill="#1B873F" stroke="#1B873F" stroke-width="0.2"/>
</svg>
